<?xml version="1.0" encoding="utf-8"?>
<!-- Generator: Adobe Illustrator 28.3.0, SVG Export Plug-In . SVG Version: 6.00 Build 0)  -->
<svg version="1.1" id="Laag_1" xmlns="http://www.w3.org/2000/svg" xmlns:xlink="http://www.w3.org/1999/xlink" x="0px" y="0px"
	 viewBox="0 0 278.6388 387.756" style="enable-background:new 0 0 278.6388 387.756;" xml:space="preserve">
<style type="text/css">
	.st0{fill:#FFFFFF;}
</style>
<g>
	<path class="st0" d="M90.452,70.1973c0.254-0.134,0.154-0.327,0.085-0.451c-0.264-0.509-0.264-0.509-0.517-0.375
		c-0.253,0.135-0.38,0.198-0.117,0.707C89.972,70.2033,90.1991,70.3283,90.452,70.1973 M79.5041,62.2713
		c-0.975-2.32-2.407-5.204-4.571-4.395c-1.972,0.711-3.168,1.823-5.072,2.659c-1.367,0.637-1.091,1.625-0.62,2.833
		c0.911,2.351,2.163,4.122,3.171,6.505c0.908,2.193,2.352,4.022,3.449,6.115c0.799,1.524,2.676,4.176,0.204,5.473
		c-0.41,0.458-0.947,0.818-1.454,1.087c-1.902,0.995-3.187,0.861-3.986-0.821c-1.504-3.174-5.765-9.754-7.746-14.455
		c-0.875-2.131-1.969-4.063-3.066-6.156c-1.429-2.727-2.858-5.294-3.557-6.625c-1.164-2.22-1.535-3.239-1.939-4.32
		c-0.541-1.334-3.05-5.194-4.381-7.729c-1.063-2.03-0.414-3.259,0.376-3.758c0.854-0.525,2.025-1.383,3.141-1.566
		c0.83-0.112,1.668,0.097,2.39,1.012c0.393,0.442,2.15,3.483,3.557,6.626c1.405,3.144,3.328,6.502,4.686,8.781
		c0.895,1.554,1.573,1.764,3.438,0.543c0.856-0.531,2.223-1.003,3.874-1.87c2.089-1.096,1.683-2.339,0.849-3.923
		c-1.195-2.284-2.55-4.403-3.582-6.371c-0.665-1.267-3.664-7.296-4.163-8.246c-0.966-1.84,0.616-2.831,1.758-3.43
		c2.284-1.199,3.814-1.676,4.976,0.543c2.427,4.631,4.909,10.285,6.305,12.946c0.498,0.955,0.873,1.97,1.436,3.05
		c0.501,0.951,1.313,1.575,2.805,4.269c2.09,3.674,4.322,8.086,7.15,13.475c0.966,1.84,1.212,2.923,1.443,3.366
		c0.599,1.142,1.452,2.153,2.082,3.356c0.4,0.761,0.485,1.851-0.467,2.349c-1.206,0.63-2.066,0.84-3.271,1.472
		c-1.267,0.665-2.254,0.939-3.628-2.141C83.584,69.5933,81.014,65.9253,79.5041,62.2713"/>
	<path class="st0" d="M96.3808,64.0384c0.207-0.059,0.287-0.304,0.228-0.511c-0.078-0.275-0.431-0.475-0.705-0.394
		c-0.209,0.057-0.17,0.194-0.113,0.4C95.9108,63.9494,96.0368,64.1344,96.3808,64.0384 M107.1527,62.1174
		c1.104-0.31,2.065-2.963,1.874-4.176c-0.349-1.76-0.716-3.592-1.339-5.278c-0.343-0.943-0.005-1.86-0.239-2.687
		c-0.211-0.757-0.878-1.538-1.24-2.552c-0.457-1.358-2.851-8.796-3.277-10.313c-0.487-1.722-0.834-4.007-1.338-5.798
		c-0.681-2.414-2.449-5.786-5.826-4.832c-2.139,0.603-2.964,2.694-2.559,4.664c0.893,4.214,2.952,9.141,3.509,12.702
		c0.307,2.148,1.193,4.501,2.03,7.468c0.215,0.757,0.654,1.527,0.869,2.287c0.563,1.999,0.42,3.601,1.503,6.124
		C102.1637,62.1084,104.4627,62.8774,107.1527,62.1174 M92.5888,56.9214c-0.272-0.966-0.399-1.676-0.631-2.502
		c-0.233-0.827-0.87-1.764-1.393-3.626c-0.545-1.93-1.436-6.142-2.271-9.108c-0.271-0.965-0.632-1.981-0.973-2.926
		c-1.275-3.734-2.043-6.718-1.301-10.947c0.884-4.785,3.371-7.051,7.371-8.178c1.515-0.428,6.124-0.982,7.395,0.893
		c0.548,0.886,0.97,1.065,1.933,1.315c1.86,0.517,2.159,1.324,3.421,3.425c1.576,2.683,2.23,4.21,3.044,7.106
		c0.721,2.55,0.907,3.467,1.487,5.536c0.798,2.824,2.411,8.025,3.52,11.954c1.186,4.207,2.573,9.396,0.501,13.926
		c-1.238,2.729-5.318,4.626-7.388,5.208c-5.514,1.553-10.2-1.069-12.435-5.575C93.8128,61.2634,93.2708,59.3334,92.5888,56.9214"/>
	<path class="st0" d="M122.509,26.674c0.357-0.029,0.476-0.326,0.453-0.613c-0.017-0.215-0.183-0.489-0.539-0.458
		c-0.285,0.024-0.471,0.395-0.459,0.537C122.0031,26.643,122.223,26.694,122.509,26.674 M125.4051,62.005
		c-0.711-0.806-1.621-1.379-2.599-1.949c-2.626-1.37-2.684-6.612-2.902-9.323c-0.092-1.141,0.411-2.045,1.698-2.146
		c1.492-0.194,0.876-0.719,3.089-0.894c1.999-0.162,1.913,2.361,2.189,4.927c0.281,2.635,0.998,5.308,4.854,4.998
		c2.642-0.211,4.077-2.049,3.871-4.618c-0.196-2.428-1.212-6.155-3.281-7.784c-2.604-2.021-3.207-3.266-4.601-3.656
		c-1.914-0.565-4.184-3.761-4.953-4.419c-3.569-3.309-4.433-7.836-4.758-11.906c-0.394-4.924,3.474-11.341,8.757-11.763
		c6.711-0.536,11.335,0.674,13.355,7.985c0.293,0.983,0.715,1.739,0.8,2.81c0.114,1.428-0.166,3.318-2.178,3.336
		c-0.213,0.019-1.636,0.201-3.143,0.179c-3.391-0.161-0.657-8.209-6.44-7.747c-2.356,0.187-4.082,1.977-3.888,4.403
		c0.124,1.573,0.596,2.972,0.978,4.162c0.856,2.59,2.346,4.195,4.651,6.022c1.152,0.915,2.805,1.86,3.991,3.204
		c0.865,0.934,0.767,1.517,1.681,2.164c1.217,0.836,2.469,2.102,3.266,3.115c1.521,1.96,2.465,4.76,2.614,6.618
		c0.437,5.496,0.848,10.635-5.026,13.548c-0.762,0.347-2.286,1.045-3.215,1.118c-1.428,0.114-3.657,0.076-4.816-0.045
		C126.787,64.048,126.583,63.274,125.4051,62.005"/>
	<path class="st0" d="M160.5211,45.1883c-0.358-0.036-0.786,0.64-0.803,0.782c-0.035,0.356,0.015,0.579,0.298,0.608
		c0.572,0.057,0.701-0.503,0.759-1.073C160.7991,45.2913,160.8051,45.2183,160.5211,45.1883 M153.1852,56.2383
		c0.215-2.067,0.46-3.769,0.69-5.979c0.105-0.995,0.768-1.862,0.888-3.001c0.052-0.498-0.222-2.038-0.147-2.75
		c0.331-3.208,0.473-6.647,0.742-9.285c0.148-1.425,0.579-2.1,0.698-3.238c0.522-5.061,0.494-6.86,0.589-7.788
		c0.105-0.998,0.546-3.183-1.236-3.37c-4.771-0.493-6.291-0.433-6.106-2.216c0.104-0.997-0.078-2.021,0.026-3.019
		c0.309-2.993,1.459-2.298,7.375-1.686c0.853,0.089,6.702,0.622,7.698,0.725c2.21,0.23,1.381,0.576,3.446,0.789
		c1.212,0.125,1.528-0.129,3.808,0.107c1.279,0.132,1.577,0.737,1.31,3.302c-0.375,3.635-1.498,3.375-7.768,2.724
		c-1.495-0.154-1.609,3.722-1.824,5.788c-0.103,0.997-0.125,1.931-0.988,10.267c-0.15,1.423-0.572,2.028-0.726,3.523
		c-0.097,0.927,0.252,1.755,0.161,3.329c-0.3,5.656-1.118,11.477-1.769,17.096c-0.223,2.138-0.879,2.934-2.236,2.793
		c-0.996-0.104-1.509-0.012-2.934-0.161c-1.639-0.169-2.043-1.147-1.899-2.499C153.0251,61.2613,153.0821,57.2353,153.1852,56.2383"
		/>
	<path class="st0" d="M174.0304,64.356c-0.48-0.144-0.83,0.28-1.202,0.543c-0.288,0.215-0.16,0.551,0.183,0.649
		c0.617,0.182,1.082-0.13,1.263-0.749C174.3555,64.5231,174.3734,64.4541,174.0304,64.356 M171.4355,60.463
		c0.824-2.821,1.764-5.53,2.528-8.144c3.555-12.171,4.221-13.17,4.321-13.515c0.6-2.063,0.928-4.208,1.689-6.818
		c0.142-0.479,1.122-4.599,1.28-5.149c0.323-1.101,0.734-2.251,1.175-3.759c0.279-0.967,0.494-1.95,0.754-2.842
		c0.322-1.101,1.371-2.137,2.813-1.715c1.17,0.34,3.175,0.627,4.071,0.89c0.619,0.181,2.69,1.008,3.033,1.109
		c3.025,0.883,5.493,1.377,8.458,2.47c1.355,0.469,1.608,1.141,1.255,2.605c-0.111,0.637-0.147,1.524-0.429,2.486
		c-0.222,0.756-0.837,1.848-1.955,1.593c-4.916-1.063-6.054-1.768-9.09-2.355c-2.536-0.518-3.176,1.162-3.697,2.951
		c-0.32,1.099-0.476,2.399-0.758,3.361c-0.462,1.581-0.855,3.18-1.385,4.745c-0.61,1.835-0.189,2.181,3.385,3.226
		c0.687,0.2,2.228,0.801,2.847,0.981c0.551,0.16,1.212,0.203,1.76,0.364c2.132,0.622,1.145,2.722,0.905,3.55
		c-0.641,2.199-0.749,3.586-2.81,2.984c-0.827-0.242-1.887-0.701-2.801-0.892c-1.417-0.265-2.702-0.717-4.056-1.183
		c-0.877-0.331-1.497,0.009-1.716,0.764c-0.484,1.651-1.22,3.152-1.675,4.96c-0.865,3.479-1.329,5.059-1.688,6.298
		c-0.324,1.099,0.311,2.254,1.41,2.574c1.396,0.333,2.643,0.921,4.058,1.185c1.348,0.247,2.476,0.724,3.712,1.086
		c1.377,0.404,2.651,1.147,2.171,2.798c-0.282,0.962-0.995,1.873-1.317,2.974c-0.322,1.101-1.218,1.359-2.043,1.119
		c-2.103-0.465-4.066-1.411-6.032-1.834c-2.74-0.576-5.454-1.519-8.134-2.302c-1.787-0.522-3.376-1.732-2.852-3.522
		C171.0224,62.133,171.0535,61.77,171.4355,60.463"/>
	<path class="st0" d="M197.2932,72.3577c-0.449-0.221-0.864,0.133-1.279,0.325c-0.321,0.163-0.256,0.515,0.063,0.674
		c0.578,0.285,1.09,0.06,1.377-0.515C197.5822,72.5837,197.6152,72.5207,197.2932,72.3577 M194.9153,68.9397
		c0.764-1.543,1.66-2.857,2.393-4.331c0.349-0.706,0.476-1.443,0.827-2.148c0.444-1.379,1.433-3.206,2.233-4.489
		c2.01-3.4,3.508-7.375,5.419-10.743c2.044-3.625,3.539-7.44,5.773-11.291c0.991-1.665,1.562-3.62,2.58-5.672
		c0.609-1.221,1.598-1.768,3.01-1.066c0.897,0.448,1.54,1.247,2.471,1.63c1.538,0.604,1.83,1.95,0.777,4.067
		c-1.626,3.27-2.458,4.455-3.383,6.315c-0.38,0.771-0.478,1.125-1.689,3.559c-1.785,3.433-3.218,6.96-5.197,10.294
		c-1.595,2.726-2.806,5.804-4.464,9.141c-0.509,1.025-1.179,1.732-1.658,2.694c-0.287,0.575-0.317,0.804-0.636,1.764
		c-0.414,1.314-0.442,1.698,0.679,2.494c1.185,0.832,2.309,1.15,3.751,2.106c1.508,0.991,3.112,1.469,4.587,2.362
		c0.61,0.38,1.219,0.925,0.676,2.015c-0.351,0.704-0.86,1.894-1.276,2.568c-0.765,1.218-1.597,1.603-3.394,0.711
		c-1.923-0.955-3.591-1.787-6.028-3.159c-2.373-1.339-2.436-1.051-7.215-3.348c-1.41-0.7-1.477-1.853-1.509-2.43
		C193.5752,70.6707,194.3412,70.0917,194.9153,68.9397"/>
	<path class="st0" d="M76.3052,326.3721c0.156,0.078,0.362,0.048,0.539-0.187c0.155-0.178,0.463-0.283,0.257-0.388
		c-0.156-0.077-0.568-0.022-0.823,0.111C76.0191,326.0401,76.0492,326.2431,76.3052,326.3721 M58.2302,346.1721
		c0.444-1.958,0.534-3.842,0.929-5.697c0.173-0.877,0.371-1.677,0.49-2.576c0.29-2.297,0.617-2.97,1.013-4.566
		c0.081-0.286,0.148-0.955-0.318-1.186c-0.36-0.172-1.051,0.576-1.377,1.249c-1.518,3.102-1.889,4.779-2.949,6.95
		c-0.457,0.932-1.042,1.737-1.523,2.719c-1.591,3.259-3.139,5.9-4.403,8.483c-0.407,0.825-1.07,1.141-1.667,0.917
		c-0.647-0.253-1.157,0.009-1.986-0.395c-1.291-0.635-1.735-1.3-1.205-2.513c0.578-1.316,1.87-4.083,4.244-8.944
		c0.608-1.245,1.167-2.121,1.673-3.156c1.212-2.48,2.196-5.011,3.611-7.908c0.506-1.035,1.09-1.968,1.596-3.003
		c0.277-0.566,1.796-3.282,2.126-3.954c0.988-2.021,2.307-4.192,2.964-5.537c0.709-1.448,2.151-1.384,2.926-1.005
		c0.466,0.228,2.401,1.112,3.024,1.418c0.829,0.404,1.324,1.349,0.975,2.72c-0.546,2.037-0.709,4.071-1.182,6.082
		c-0.569,2.477-0.734,4.128-1.111,5.414c-0.247,0.907-0.159,2.166-0.328,3.171c-0.225,1.112-1.061,2.688-0.183,3.12
		c0.417,0.197,0.721-0.035,0.847-0.295c1.546-3.021,2.787-5.298,3.749-7.393c1.409-3.149,2.429-4.449,3.386-6.8
		c0.809-2.041,1.761-1.893,2.585-1.749c1.005,0.173,1.27,0.686,1.914,0.935c0.903,0.378,1.558,1.273,0.925,2.568
		c-0.583,1.192-1.451,2.175-2.054,3.414c-0.38,0.779-0.679,1.913-1.084,2.61c-2.156,3.883-2.425,5.354-3.617,7.397
		c-2.741,4.684-4.244,9.071-6.171,12.616c-2.408,4.398-2.96,6.051-3.213,6.567c-0.506,1.035-1.401,1.555-2.589,0.975
		c-1.914-0.934-3.616-1.255-3.641-4.087C56.7071,351.5141,57.5942,350.0891,58.2302,346.1721"/>
	<path class="st0" d="M76.0813,356.917c0.382,0.136,0.548,0.013,0.665-0.312c0.153-0.433-0.006-0.674-0.385-0.813
		c-0.217-0.075-0.545-0.008-0.663,0.32C75.5423,356.545,75.7552,356.804,76.0813,356.917 M73.8003,351.153
		c0.198-0.722,0.539-1.336,1.101-2.906c0.446-1.249,1.153-3.746,2.44-7.014c1.017-2.509,1.474-5.156,2.596-7.446
		c0.229-0.47,1.053-3.288,1.149-3.559c0.524-1.465,1.171-2.762,1.577-3.899c0.349-0.978,1.262-1.318,2.277-1.081
		c0.797,0.163,1.519,0.542,2.259,0.867c1.12,0.46,1.414,1.18,1.045,2.205c-0.846,2.206-1.586,4.447-2.38,6.667
		c-0.136,0.383-0.235,0.834-0.978,2.401c-0.917,2.059-2.204,7.034-3.875,11.024c-1.648,3.932-2.628,7.371-2.734,8.006
		c-0.084,0.581-0.388,1.083-0.635,1.607c-0.646,1.296-0.881,2.984-1.663,4.66c-0.554,1.21-1.201,1.652-2.554,1.168
		c-0.599-0.214-1.192-0.608-1.806-0.767c-1.122-0.277-1.504-1.089-1.131-2.483C71.0443,358.359,72.8343,354.722,73.8003,351.153"/>
	<path class="st0" d="M96.4068,333.1836c0.168,0.044,0.281-0.165,0.314-0.277c0.057-0.22-0.063-0.434-0.286-0.492
		c-0.167-0.047-0.299,0.219-0.327,0.329C96.0318,333.0206,96.1298,333.1076,96.4068,333.1836 M81.4628,363.0326
		c0.775-1.999,2.185-1.025,3.708-1.153c1.581-0.11,2.769-1.639,3.17-3.142c1.309-4.417,2.603-8.779,3.632-13.275
		c0.725-3.144,1.869-6.296,2.47-9.409c0.263-1.422,0.813-2.583,1.204-4.034c0.267-0.996,0.656-3.103,2.768-2.532
		c0.722,0.194,1.395,0.138,2.111,0.566c0.61,0.404,1.343,0.781,0.985,2.116c-0.451,1.666-0.959,4.211-1.75,7.162
		c-0.614,2.276-1.367,4.643-2.108,7.182c-0.242,0.893-0.467,1.068-1.139,3.57c-0.51,1.893-0.559,2.294-1.05,4.788
		c-0.244,1.123-0.605,2.695-1.219,4.978c-0.477,1.78-1.206,3.374-2.599,4.788c-0.894,0.888-1.625,1.83-2.64,2.273
		c-1.828,0.817-3.964,0.779-6.076,0.212c-0.947-0.257-2.002-0.538-1.899-1.822C81.0697,364.7136,81.0967,363.9486,81.4628,363.0326"
		/>
	<path class="st0" d="M114.6776,371.7281c0.226,0.03,0.503-0.348,0.53-0.575c0.019-0.171-0.152-0.191-0.267-0.206
		c-0.342-0.038-0.477,0.121-0.503,0.348C114.4176,371.4701,114.5066,371.7091,114.6776,371.7281 M121.2256,370.7561
		c0.092-0.803-0.301-1.369-0.189-2.343c0.769-6.576,1.046-9.442,1.206-10.814c0.161-1.372,0.788-5.244,0.1-5.325
		c-0.457-0.053-1.373,1.349-2.895,7.432c-0.758,2.983-2.335,7.556-2.73,8.957c-0.707,2.586-1.117,4.101-2.147,3.983
		c-0.517-0.062-1.187,0.207-2.169,0.208c-1.275-0.034-2.39-0.394-2.523-2.73l-0.28-5.538c-0.162-2.574-0.257-5.252-0.689-7.503
		c-0.468-2.43-0.18-6.397-0.864-6.481c-0.747-0.084-0.851,0.831-0.885,1.116c-0.187,1.603-0.528,4.517-0.749,7.391
		c-0.258,3.68-0.83,7.092-1.259,10.753c-0.138,1.202-0.516,1.967-1.549,1.848c-0.558-0.181-1.384-0.046-1.849-0.04
		c-1.279,0.022-1.807-0.909-1.635-2.397c0.405-3.43,0.82-8.483,1.374-13.23c0.222-1.888,0.615-3.757,0.856-5.816
		c0.065-0.57,0.199-3.689,0.342-4.421c0.634-3.928,1.093-7.876,1.366-11.668c0.145-2.246,1.415-2.68,2.5-2.551
		c0.743,0.088,1.802,0.445,2.832,0.564c1.03,0.118,1.966,0.058,2.617,0.421c0.437,0.228,0.857,0.62,0.934,2.949
		c0.12,1.93,0.487,5.739,0.764,9.83c0.035,0.7,0.12,1.93,0.153,3.151c-0.044,0.862,0.123,4.361,0.179,5.411
		c0.148,2.685-0.125,4.045,0.675,4.137c0.743,0.088,0.986-1.506,1.119-2.13c0.027-0.231,0.585-1.553,0.653-2.126
		c0.242-2.059,0.852-3.321,2.053-7.646c0.598-2.133,1.348-4.075,1.939-6.152c0.391-1.344,0.88-3.084,1.148-4.388
		c0.4-1.921,2.09-2.016,3.981-1.794c3.602,0.421,4.695,0.491,4.658,2.808c-0.026,2.198-0.509,4.345-0.765,6.52
		c-0.348,2.97-0.592,6.071-1.487,12.23c-0.396,2.91-0.967,5.802-1.021,8.751c-0.072,2.599-0.58,5.442-0.955,8.642
		c-0.153,1.316-0.771,1.652-3.173,1.373c-2.062-0.245-2.15-0.951-2.11-1.811C120.7576,371.8001,121.1646,371.2691,121.2256,370.7561
		"/>
	<path class="st0" d="M138.1694,372.0308c-0.403,0.021-0.553,0.43-0.771,0.734c-0.159,0.238,0.025,0.457,0.314,0.442
		c0.517-0.027,0.785-0.385,0.758-0.906C138.4585,372.0728,138.4554,372.0158,138.1694,372.0308 M135.1665,369.7648
		c-0.12-2.359-0.126-4.664-0.24-6.852c-0.526-10.178-0.285-11.114-0.3-11.403c-0.093-1.728-0.409-3.439-0.523-5.624
		c-0.021-0.403-0.37-3.788-0.394-4.249c-0.045-0.92-0.043-1.898-0.109-3.165c-0.038-0.806-0.137-1.61-0.177-2.356
		c-0.048-0.917,0.473-1.986,1.679-2.046c0.982-0.054,2.579-0.367,3.325-0.403c0.521-0.03,2.311,0.052,2.596,0.04
		c2.531-0.136,4.539-0.412,7.074-0.367c1.156-0.006,1.523,0.436,1.647,1.64c0.084,0.518,0.292,1.197,0.333,2.004
		c0.034,0.632-0.147,1.622-1.065,1.727c-4.011,0.496-5.061,0.261-7.523,0.622c-2.061,0.28-2.099,1.721-2.024,3.216
		c0.051,0.922,0.273,1.947,0.315,2.754c0.07,1.32,0.196,2.641,0.208,3.969c0.021,1.555,0.433,1.705,3.424,1.552
		c0.575-0.033,1.904,0.019,2.422-0.012c0.461-0.024,0.972-0.165,1.432-0.189c1.785-0.093,1.592,1.763,1.628,2.456
		c0.097,1.838,0.382,2.918-1.342,3.008c-0.692,0.036-1.619-0.03-2.365,0.066c-1.144,0.175-2.239,0.175-3.391,0.175
		c-0.749-0.018-1.131,0.406-1.102,1.041c0.072,1.377-0.086,2.71,0.049,4.203c0.261,2.87,0.33,4.198,0.384,5.229
		c0.048,0.921,0.834,1.628,1.754,1.583c1.147-0.12,2.251,0.001,3.395-0.177c1.086-0.172,2.069-0.105,3.105-0.163
		c1.149-0.056,2.317,0.169,2.389,1.55c0.038,0.807-0.259,1.685-0.211,2.606c0.045,0.921-0.566,1.357-1.255,1.393
		c-1.721,0.205-3.46,0.006-5.068,0.208c-2.232,0.285-4.536,0.288-6.781,0.405c-1.495,0.078-3.021-0.418-3.099-1.913
		C135.2955,371.1428,135.2234,370.8568,135.1665,369.7648"/>
	<path class="st0" d="M158.8946,345.4751c0.284-0.058,0.362-0.246,0.297-0.584c-0.064-0.342-0.628-0.527-1.025-0.448
		c-0.284,0.055-0.27,0.113-0.229,0.338C158.0366,345.2871,158.3856,345.5741,158.8946,345.4751 M156.8206,358.0741
		c0.007-0.882-0.338-2.047-0.601-3.11c-0.743-2.902-1.461-5.404-1.662-7.653c-0.168-2.078-0.609-3.753-0.79-5.298
		c-0.599-5.219,0.632-7.629,4.009-9.577c1.292-0.598,1.405-1.211,2.932-1.504c2.15-0.417,5.028-0.681,7.722,2.019
		c2.762,2.752,2.905,5.305,3.442,8.073c0.229,1.186,0,1.819-0.734,1.959c-0.791,0.158-1.641,0.612-2.445,0.711
		c-1.264,0.127-1.917-0.509-2.057-1.244c-0.154-0.793-0.25-1.887-0.401-2.676c-0.327-1.699-1.66-4.023-4.146-3.538
		c-2.375,0.458-3.031,2.814-2.638,4.847c0.506,2.601,0.862,3.531,0.998,5.148c0.247,3.701,1.829,7.328,2.1,9.618
		c0.245,2.184,0.82,4.241,1.227,6.33c0.437,2.263,1.63,4.2,3.893,3.759c3.223-0.618,3.055-3.285,2.362-5.967
		c-0.852-3.179-0.992-4.205-1.122-4.885c-0.222-1.131-0.283-1.469-1.415-1.251c-0.68,0.13-1.425,0.219-1.623-0.8
		c-0.185-0.956-0.623-1.106-0.749-2.669c-0.14-1.025,0.595-1.463,1.524-1.818c1.357-0.557,2.769-0.537,4.126-0.8
		c1.695-0.328,2.423,0.116,2.909,2.601c0.338,1.753,0.902,3.462,1.083,5.304c0.11,1.149,0.485,2.195,0.705,3.323
		c0.93,4.802,0.701,10.889-6.535,12.291c-3.162,0.616-4.522-0.355-6.214-0.905c-2.198-0.749-3.719-2.858-4.471-5.527
		C157.8936,363.6151,156.8036,359.1921,156.8206,358.0741"/>
	<path class="st0" d="M187.6063,363.8663c-0.379,0.131-0.415,0.566-0.54,0.914c-0.086,0.276,0.151,0.439,0.422,0.347
		c0.491-0.169,0.653-0.591,0.484-1.081C187.8983,363.8273,187.8773,363.7753,187.6063,363.8663 M184.0993,362.5123
		c-0.768-2.232-1.406-4.447-2.117-6.515c-3.309-9.644-3.337-10.608-3.428-10.879c-0.56-1.634-1.339-3.194-2.05-5.263
		c-0.13-0.382-1.398-3.542-1.547-3.976c-0.299-0.866-0.563-1.815-0.976-3.011c-0.26-0.765-0.576-1.505-0.819-2.214
		c-0.299-0.873-0.091-2.04,1.053-2.434c0.924-0.317,2.376-1.057,3.082-1.3c0.494-0.168,2.236-0.586,2.511-0.681
		c2.395-0.82,4.244-1.638,6.696-2.299c1.109-0.317,1.583,0.005,2.033,1.131c0.221,0.472,0.61,1.07,0.871,1.831
		c0.207,0.598,0.305,1.6-0.547,1.955c-3.722,1.58-4.794,1.644-7.059,2.666c-1.909,0.839-1.548,2.237-1.062,3.652
		c0.303,0.869,0.8,1.796,1.061,2.557c0.433,1.252,0.914,2.486,1.288,3.758c0.451,1.492,0.89,1.522,3.723,0.551
		c0.543-0.187,1.833-0.505,2.323-0.678c0.438-0.147,0.89-0.424,1.324-0.572c1.69-0.581,2.017,1.252,2.239,1.909
		c0.598,1.742,1.173,2.701-0.461,3.264c-0.654,0.221-1.562,0.413-2.253,0.708c-1.053,0.484-2.107,0.788-3.212,1.102
		c-0.727,0.191-0.979,0.703-0.772,1.305c0.451,1.304,0.661,2.632,1.203,4.03c1.041,2.683,1.473,3.938,1.807,4.922
		c0.3,0.865,1.249,1.331,2.125,1.033c1.07-0.426,2.159-0.618,3.208-1.103c1.001-0.463,1.965-0.675,2.945-1.009
		c1.087-0.37,2.271-0.476,2.718,0.831c0.264,0.762,0.216,1.691,0.515,2.564c0.303,0.869-0.169,1.459-0.823,1.684
		c-1.595,0.668-3.32,0.957-4.811,1.592c-2.068,0.888-4.283,1.531-6.407,2.259c-1.415,0.486-3.02,0.429-3.506-0.989
		C184.6013,363.8013,184.4543,363.5483,184.0993,362.5123"/>
	<path class="st0" d="M207.8792,318.1005c0.156-0.079,0.254-0.261,0.174-0.541c-0.054-0.234,0.043-0.54-0.158-0.435
		c-0.156,0.078-0.357,0.442-0.405,0.726C207.4422,318.1345,207.6272,318.2375,207.8792,318.1005 M212.9662,344.4335
		c-1.304-1.53-2.759-2.719-4.016-4.148c-0.599-0.664-1.121-1.3-1.77-1.936c-1.67-1.6-2.015-2.266-3.062-3.539
		c-0.181-0.233-0.677-0.689-1.138-0.452c-0.358,0.186-0.165,1.19,0.176,1.852c1.586,3.071,2.71,4.372,3.815,6.521
		c0.477,0.921,0.773,1.871,1.272,2.841c1.663,3.226,2.857,6.043,4.176,8.603c0.423,0.818,0.278,1.54-0.26,1.883
		c-0.588,0.369-0.685,0.938-1.502,1.357c-1.279,0.66-2.081,0.618-2.737-0.532c-0.709-1.257-2.161-3.941-4.639-8.75
		c-0.635-1.226-1.009-2.204-1.532-3.227c-1.266-2.454-2.716-4.755-4.19-7.623c-0.527-1.023-0.926-2.047-1.457-3.071
		c-0.287-0.563-1.562-3.404-1.903-4.07c-1.029-1.997-1.985-4.353-2.67-5.688c-0.739-1.427,0.175-2.547,0.94-2.942
		c0.461-0.243,2.33-1.268,2.942-1.584c0.822-0.423,1.877-0.254,2.767,0.842c1.308,1.658,2.845,3.003,4.177,4.584
		c1.647,1.937,2.871,3.053,3.682,4.128c0.575,0.739,1.641,1.419,2.343,2.161c0.758,0.837,1.526,2.449,2.397,2.001
		c0.408-0.212,0.402-0.599,0.273-0.854c-1.507-3.042-2.591-5.401-3.699-7.419c-1.688-3.017-2.115-4.608-3.429-6.782
		c-1.16-1.866-0.47-2.547,0.14-3.118c0.739-0.703,1.304-0.607,1.895-0.975c0.843-0.502,1.947-0.49,2.607,0.788
		c0.606,1.179,0.882,2.464,1.517,3.693c0.394,0.768,1.127,1.684,1.443,2.428c1.828,4.045,2.845,5.141,3.772,7.319
		c2.125,4.992,4.747,8.821,6.441,12.487c2.09,4.555,3.084,5.984,3.349,6.498c0.528,1.024,0.412,2.054-0.764,2.663
		c-1.894,0.976-3.166,2.147-5.454,0.479C216.3441,348.8475,215.7361,347.2815,212.9662,344.4335"/>
	<path class="st0" d="M28.912,181.8901c2.266,0.377,9.065,0.629,12.338-3.4c0.629-0.756,1.133-6.925,1.133-13.473
		c0-8.058-4.28-10.954-9.442-10.954c-3.526,0-6.422-0.377-6.675,4.029c-0.124,3.022-0.25,8.814-0.25,9.821
		c0,1.637,0.25,9.065,0.25,11.081C26.266,180.2531,27.4,181.6371,28.912,181.8901 M34.325,117.0461
		c-2.014,0-3.524-0.252-5.163-0.126c-1.51,0.126-2.769,1.26-2.896,2.896c-0.754,6.925,0.379,12.338,0,19.013
		c-0.124,3.02,3.023,3.147,5.163,3.147c8.437,0,9.444-5.289,9.444-11.961c0-1.763-0.127-3.653-0.127-5.289
		C40.7459,121.3261,37.977,117.0461,34.325,117.0461 M52.9599,167.5361c1.007,0,2.14,2.77,2.14,4.532
		c0,5.289-1.384,10.451-4.154,14.354c-0.505,0.63-2.896,3.273-3.652,3.903c-3.399,3.399-12.213,3.399-16.872,3.399
		s-8.435-0.503-12.844-0.503c-5.286,0-4.783-6.422-4.783-9.442c0-2.393,0.377-3.526,0.377-6.171c0-6.043-0.377-11.961-0.377-18.256
		c0-4.156,0.377-7.682,0.377-11.961c0-3.526-0.377-6.926-0.377-10.451c0-6.548,0.377-11.332,0.377-17.753
		c0-3.023-0.377-5.792-0.377-8.815c0-3.776,3.526-5.288,6.925-5.288c5.036,0,9.192-0.251,14.605-0.251
		c8.184,0,19.517,4.909,19.517,17.249c0,7.429,0,12.842-2.268,17.376c-1.384,2.897-4.153,5.54-4.153,7.429
		c0,2.14,1.763,2.77,2.769,4.406c1.89,3.023,4.533,6.799,4.533,10.828c0,4.408-0.63,2.896-2.896,2.896
		c-0.377,0-0.63,0.126-0.63,0.63C51.1969,166.7801,51.8269,167.5361,52.9599,167.5361"/>
	<path class="st0" d="M84.8231,166.2765c3.401,0,5.289,0.127,5.289-2.896c0-0.88,0-1.889-2.896-21.279
		c-1.007-6.798-1.258-15.109-3.526-15.109c-3.02,0-3.399,9.821-3.524,11.836c-0.379,4.154-0.882,6.799-1.386,10.451
		c-1.51,10.072-1.763,12.465-1.763,13.095C77.017,166.2765,78.15,166.2765,84.8231,166.2765 M62.7901,184.2825
		c0.63-0.379,0.63,0.88,1.637,0.88c0.503,0,1.133-0.503,1.133-1.006c0-0.63-0.63-1.134-1.133-1.134c-0.63,0-0.883,0.378-1.386,0.127
		c-0.251-0.127-0.251-0.63-0.251-0.883c0-2.266,1.007-5.035,1.26-7.175c0.25-1.889,0.377-3.903,0.629-5.792
		c0.754-5.919,2.267-12.844,2.267-13.977c0-3.776,1.887-7.302,1.887-11.205c0-4.408,1.259-8.185,1.889-12.717
		c1.007-7.808,2.015-15.236,4.029-23.545c0.504-1.763,1.763-2.645,3.903-2.645c2.266,0,5.036,0.882,7.051,0.882
		c1.89,0,3.023-0.882,4.91-0.882c4.029,0,3.526,4.785,4.155,8.435c0.127,0.505,1.007,5.162,1.134,5.792
		c0.126,0.63,0.252,3.275,0.379,3.905c0.88,5.286,1.762,9.568,2.517,14.353c0.503,3.147,0.882,7.555,0.882,8.813
		c0,2.141,0.88,3.778,1.258,5.667c0.252,1.761,0.378,5.036,0.505,5.666c1.636,5.666,1.763,10.702,2.896,15.738
		c1.257,5.541,2.266,13.096,2.896,16.746c0.251,1.636-1.386,2.896-3.149,2.896c-1.385,0-2.896-0.251-6.295-0.251
		c-2.016,0-2.896-1.26-3.023-2.266c-0.126-1.512-1.51-7.682-1.762-9.318c-0.377-2.519-0.377-4.785-3.777-4.785
		c-1.259,0-2.14,0.377-6.045,0.377c-5.162,0-5.792,0.253-6.421,0.505c-6.043,2.391,0,15.864-7.679,15.864
		c-1.513,0-3.023,0-4.659-0.377c-2.519-0.503-2.519-2.393-2.519-4.785C61.908,187.4295,61.657,184.9125,62.7901,184.2825"/>
	<path class="st0" d="M132.8049,145.6273c10.703,0,9.695-10.45,9.695-17.502c0-3.776-1.384-7.555-3.903-9.945
		c-1.51-1.386-3.526-1.009-7.302-1.009c-2.77,0-3.275,1.259-3.023,4.029c0.63,9.191-0.252,13.977-0.252,19.265
		C128.0199,145.6273,129.028,145.6273,132.8049,145.6273 M127.7689,107.3503c-0.63,0,0.251,1.763,0.251,2.519
		c0,0.756,1.134,1.385,2.015,1.385c0.63,0,0.63-0.126,0.63-0.629C130.6649,109.4923,128.9019,107.3503,127.7689,107.3503
		 M115.1779,182.0163c0.251-6.171-0.379-12.214,0-19.895c0.126-1.51,0.377-2.266,0.377-3.903c0-1.386-0.377-2.266-0.377-3.652
		c0-3.399,0.63-6.925,0.63-10.954v-7.05c0-1.889,0.377-4.532,0.377-6.421c0-1.512-1.26-3.023-0.881-7.303
		c0.377-4.534,0-7.933,0-11.963c0-4.532,3.4-5.288,7.176-5.665c5.162-0.504,9.821,0.252,15.236,0.252
		c8.183,0,14.731,3.273,16.367,11.709c0.38,2.142,1.386,4.282,1.26,6.548c-0.377,5.918,0.63,9.695-0.88,15.613
		c-0.63,2.392-1.009,3.65-2.142,5.666c-1.134,1.763-3.4,3.525-3.4,5.162c0,1.636,1.133,2.266,3.4,5.036
		c2.769,3.399,3.275,8.94,3.148,13.724c-0.126,4.911,0.377,9.444,0,14.606c-0.126,2.016,0.127,4.406,0.251,6.925
		c0.126,1.763-0.88,2.896-2.517,2.896c-2.142,0-4.408,0.377-6.548,0c-2.643-0.503-4.029-2.519-4.029-6.169
		c0-2.519,0.126-5.038,0-7.555c-0.126-3.399-0.251-10.954-0.251-12.59c0-5.415-4.282-9.822-9.57-9.822
		c-4.28,0-4.533,1.888-4.533,4.91c0,3.652,0.126,7.429,0.126,10.704c0,2.769-0.126,4.909-0.126,7.302
		c0,2.013,0.126,3.902,0.126,5.918c0,2.393,0.251,6.169-3.273,6.799c-1.008,0-2.645,1.007-6.548,0.63
		c-1.51-0.127-2.896-1.007-3.273-3.275C114.9249,187.9323,115.0519,184.6593,115.1779,182.0163"/>
	<path class="st0" d="M188.9707,146.3835c0.251,0,0.628-0.126,0.628-0.505c0-0.628-0.377-0.88-0.628-0.88
		c-0.379,0-0.756,0.252-0.756,0.503C188.2147,146.2575,188.5917,146.3835,188.9707,146.3835 M183.9327,181.7635
		c7.429,0,9.57-2.517,10.954-6.548c1.009-2.894,0.504-6.546,0.504-10.828c0-8.812-4.154-10.828-12.842-10.828
		c-3.399,0-3.525,1.26-3.525,5.666c0,3.399-0.127,7.051-0.127,10.577c0,3.147,0.127,6.169,0.504,9.191
		C179.6527,181.3865,181.7927,181.7635,183.9327,181.7635 M182.0457,141.8495c5.162,0.379,11.457-0.504,11.457-9.946
		c0-2.519,0.378-4.408,0-5.918c-0.629-2.77-0.503-5.162-3.022-7.051c-1.763-1.384-3.903-1.888-6.799-1.888
		c-4.281,0-4.785,2.896-4.785,6.799c0,1.763,0.127,3.526,0.127,5.036c0,2.016-0.127,4.029-0.127,6.169
		C178.8967,140.0885,178.8967,141.5985,182.0457,141.8495 M166.1797,166.1505c0-4.029,0.126-8.185,0.126-11.709
		c0-5.792-0.126-11.08-0.126-14.479c0-4.659,0.882-7.178,0.882-11.081c0-3.022-0.882-7.806-0.882-12.968
		c0-4.029-0.126-10.83,6.925-10.83c4.912,0,8.815-1.007,13.85-0.503c2.393,0.252,4.912,1.133,7.555,1.637
		c9.569,1.889,11.835,12.087,11.835,20.901c0,5.666-0.125,10.577-3.399,14.983c-1.007,1.386-2.517,2.519-2.517,4.407
		c0,1.889,1.133,2.266,3.02,4.532c3.905,4.659,4.785,11.584,4.785,17.252c0,5.287-0.251,10.701-2.896,15.486
		c-3.652,6.42-10.198,9.443-16.746,9.443c-1.384,0-2.896-0.251-4.155-0.251c-1.258,0-3.147,0.63-12.339,0.377
		c-4.155-0.126-5.414-1.637-5.665-4.659C165.9287,182.5195,166.1797,174.8385,166.1797,166.1505"/>
	<path class="st0" d="M237.8328,166.2765c3.399,0,5.287,0.127,5.287-2.896c0-0.88,0-1.889-2.896-21.279
		c-1.007-6.798-1.258-15.109-3.526-15.109c-3.021,0-3.4,9.821-3.524,11.836c-0.379,4.154-0.882,6.799-1.386,10.451
		c-1.51,10.072-1.763,12.465-1.763,13.095C230.0248,166.2765,231.1578,166.2765,237.8328,166.2765 M215.7979,184.2825
		c0.63-0.379,0.63,0.88,1.637,0.88c0.503,0,1.133-0.503,1.133-1.006c0-0.63-0.63-1.134-1.133-1.134c-0.63,0-0.883,0.378-1.386,0.127
		c-0.251-0.127-0.251-0.63-0.251-0.883c0-2.266,1.007-5.035,1.259-7.175c0.251-1.889,0.378-3.903,0.628-5.792
		c0.756-5.919,2.268-12.844,2.268-13.977c0-3.776,1.888-7.302,1.888-11.205c0-4.408,1.259-8.185,1.889-12.717
		c1.007-7.808,2.014-15.236,4.029-23.545c0.504-1.763,1.763-2.645,3.903-2.645c2.266,0,5.036,0.882,7.051,0.882
		c1.89,0,3.023-0.882,4.91-0.882c4.029,0,3.526,4.785,4.155,8.435c0.127,0.505,1.007,5.162,1.134,5.792
		c0.126,0.63,0.252,3.275,0.378,3.905c0.881,5.286,1.763,9.568,2.517,14.353c0.504,3.147,0.883,7.555,0.883,8.813
		c0,2.141,0.88,3.778,1.259,5.667c0.251,1.761,0.377,5.036,0.504,5.666c1.636,5.666,1.763,10.702,2.896,15.738
		c1.257,5.541,2.266,13.096,2.896,16.746c0.251,1.636-1.386,2.896-3.149,2.896c-1.386,0-2.896-0.251-6.295-0.251
		c-2.016,0-2.896-1.26-3.023-2.266c-0.126-1.512-1.51-7.682-1.763-9.318c-0.377-2.519-0.377-4.785-3.776-4.785
		c-1.259,0-2.14,0.377-6.045,0.377c-5.162,0-5.792,0.253-6.419,0.505c-6.045,2.391,0,15.864-7.681,15.864
		c-1.513,0-3.023,0-4.659-0.377c-2.519-0.503-2.519-2.393-2.519-4.785C214.9158,187.4295,214.6648,184.9125,215.7979,184.2825"/>
	<path class="st0" d="M35.1441,246.3754c10.703,0,9.694-10.45,9.694-17.502c0-3.776-1.383-7.555-3.902-9.945
		c-1.51-1.386-3.526-1.009-7.302-1.009c-2.77,0-3.274,1.259-3.023,4.029c0.63,9.192-0.251,13.977-0.251,19.265
		C30.3601,246.3754,31.3671,246.3754,35.1441,246.3754 M30.1081,208.0984c-0.63,0,0.252,1.763,0.252,2.519
		c0,0.756,1.133,1.385,2.014,1.385c0.63,0,0.63-0.126,0.63-0.629C33.0041,210.2404,31.2411,208.0984,30.1081,208.0984
		 M17.5171,282.7644c0.251-6.171-0.379-12.214,0-19.895c0.126-1.51,0.377-2.266,0.377-3.903c0-1.386-0.377-2.266-0.377-3.652
		c0-3.399,0.63-6.925,0.63-10.954v-7.05c0-1.889,0.377-4.532,0.377-6.421c0-1.512-1.26-3.023-0.881-7.303
		c0.377-4.534,0-7.933,0-11.962c0-4.533,3.4-5.289,7.176-5.666c5.162-0.504,9.821,0.252,15.236,0.252
		c8.183,0,14.731,3.274,16.367,11.709c0.379,2.142,1.386,4.282,1.26,6.548c-0.377,5.918,0.63,9.695-0.881,15.613
		c-0.629,2.393-1.008,3.65-2.141,5.666c-1.134,1.763-3.4,3.525-3.4,5.162c0,1.637,1.133,2.266,3.4,5.036
		c2.769,3.399,3.275,8.94,3.148,13.724c-0.126,4.911,0.377,9.444,0,14.606c-0.126,2.016,0.127,4.406,0.251,6.925
		c0.126,1.763-0.881,2.896-2.517,2.896c-2.142,0-4.408,0.377-6.548,0c-2.643-0.503-4.029-2.519-4.029-6.169
		c0-2.519,0.126-5.038,0-7.555c-0.127-3.399-0.251-10.954-0.251-12.59c0-5.415-4.282-9.822-9.57-9.822
		c-4.28,0-4.533,1.888-4.533,4.91c0,3.652,0.126,7.429,0.126,10.704c0,2.769-0.126,4.909-0.126,7.302
		c0,2.013,0.126,3.903,0.126,5.918c0,2.393,0.251,6.169-3.273,6.799c-1.008,0-2.645,1.007-6.548,0.63
		c-1.51-0.127-2.896-1.007-3.273-3.275C17.2641,288.6804,17.3911,285.4074,17.5171,282.7644"/>
	<path class="st0" d="M90.0502,283.3936c2.014,0,4.91-4.029,5.162-6.171c0.251-3.146,0.504-6.421,0.251-9.568
		c-0.124-1.763,0.883-3.149,0.883-4.659c0-1.385-0.757-3.022-0.883-4.909c-0.124-2.519-0.63-16.243-0.63-19.013
		c0-3.149,0.506-7.178,0.506-10.451c0-4.408-1.386-10.954-7.555-10.954c-3.905,0-6.295,3.147-6.548,6.673
		c-0.503,7.554,0.63,16.872-0.126,23.167c-0.504,3.777-0.127,8.185-0.127,13.598c0,1.386,0.379,2.896,0.379,4.282
		c0,3.652-1.007,6.295-0.379,11.08C81.6133,281.0016,85.1393,283.3936,90.0502,283.3936 M70.9113,281.5046
		c0.377,0,0.63-0.377,0.63-0.756c0-0.503-0.503-1.006-1.007-1.006c-0.379,0-0.379,0.252-0.379,0.629
		C70.1553,281.1276,70.2822,281.5046,70.9113,281.5046 M67.8893,267.6546c0-1.763,0.126-3.022,0.126-4.532
		c0-1.512-0.629-3.4-0.629-6.799c0-3.526,0.503-11.081,0.503-16.496c0-1.763-0.126-3.65-0.251-5.413
		c-0.379-6.925-0.252-12.34,3.021-19.139c3.778-7.681,9.067-10.324,16.369-10.324c2.769,0,10.828,1.259,12.087,5.036
		c0.504,1.763,1.133,2.266,2.644,3.148c2.895,1.763,3.022,3.273,4.155,7.429c1.386,5.289,1.763,8.184,1.763,13.471
		c0,4.659-0.126,6.296-0.126,10.074c0,5.162,0.252,14.731,0.252,21.908c0,7.68-0.126,17.124-5.792,23.796
		c-3.399,4.029-11.207,5.289-14.983,5.289c-10.072,0-16.746-6.673-18.383-15.36C67.8893,275.5866,67.8893,272.0606,67.8893,267.6546
		"/>
	<path class="st0" d="M124.3064,227.4898c0.629,0,0.88-0.504,0.88-1.009c0-0.377-0.251-0.88-0.88-0.88
		c-0.504,0-0.883,0.629-0.883,0.88C123.4234,227.3628,123.8024,227.4898,124.3064,227.4898 M124.4324,289.8138
		c-1.133-1.51-2.645-2.643-4.282-3.776c-4.406-2.77-3.776-11.962-3.776-16.747c0-2.013,1.007-3.525,3.273-3.525
		c2.643-0.127,1.636-1.133,5.539-1.133c3.526,0,3.022,4.408,3.149,8.94c0.126,4.659,1.007,9.442,7.805,9.442
		c4.659,0,7.429-3.02,7.429-7.554c0-4.28-1.258-10.955-4.659-14.102c-4.28-3.902-5.162-6.169-7.553-7.051
		c-3.275-1.259-6.801-7.176-8.058-8.435c-5.792-6.296-6.675-14.354-6.675-21.532c0-8.688,7.682-19.389,16.999-19.389
		c11.835,0,19.767,2.769,22.286,15.864c0.377,1.762,1.007,3.148,1.007,5.037c0,2.517-0.755,5.792-4.28,5.54
		c-0.379,0-2.896,0.126-5.541-0.127c-5.917-0.756,0-14.48-10.199-14.48c-4.155,0-7.428,2.896-7.428,7.178
		c0,2.77,0.63,5.289,1.133,7.429c1.133,4.658,3.526,7.681,7.302,11.205c1.889,1.763,4.659,3.652,6.548,6.171
		c1.384,1.762,1.133,2.769,2.644,4.029c2.015,1.636,4.029,4.029,5.288,5.916c2.393,3.652,3.652,8.688,3.652,11.963
		c0,9.695,0,18.76-10.703,23.042c-1.384,0.503-4.154,1.51-5.792,1.51c-2.517,0-6.42-0.377-8.436-0.756
		C126.5724,293.5918,126.3194,292.2068,124.4324,289.8138"/>
	<path class="st0" d="M171.4056,227.4898c0.629,0,0.88-0.504,0.88-1.009c0-0.377-0.251-0.88-0.88-0.88
		c-0.504,0-0.883,0.629-0.883,0.88C170.5226,227.3628,170.9016,227.4898,171.4056,227.4898 M171.5316,289.8138
		c-1.133-1.51-2.645-2.643-4.282-3.776c-4.406-2.77-3.776-11.962-3.776-16.747c0-2.013,1.007-3.525,3.273-3.525
		c2.643-0.127,1.636-1.133,5.539-1.133c3.526,0,3.022,4.408,3.149,8.94c0.126,4.659,1.007,9.442,7.805,9.442
		c4.659,0,7.429-3.02,7.429-7.554c0-4.28-1.258-10.955-4.657-14.102c-4.282-3.902-5.164-6.169-7.555-7.051
		c-3.275-1.259-6.801-7.176-8.058-8.435c-5.792-6.296-6.675-14.354-6.675-21.532c0-8.688,7.682-19.389,16.999-19.389
		c11.835,0,19.767,2.769,22.286,15.864c0.377,1.762,1.007,3.148,1.007,5.037c0,2.517-0.754,5.792-4.28,5.54
		c-0.379,0-2.896,0.126-5.541-0.127c-5.917-0.756,0-14.48-10.199-14.48c-4.155,0-7.428,2.896-7.428,7.178
		c0,2.77,0.63,5.289,1.133,7.429c1.133,4.658,3.526,7.681,7.302,11.205c1.889,1.763,4.659,3.652,6.548,6.171
		c1.384,1.762,1.133,2.769,2.644,4.029c2.015,1.636,4.029,4.029,5.288,5.916c2.393,3.652,3.652,8.688,3.652,11.963
		c0,9.695,0,18.76-10.703,23.042c-1.384,0.503-4.154,1.51-5.792,1.51c-2.517,0-6.42-0.377-8.436-0.756
		C173.6716,293.5918,173.4186,292.2068,171.5316,289.8138"/>
	<path class="st0" d="M233.1089,267.0245c3.399,0,5.287,0.127,5.287-2.896c0-0.88,0-1.889-2.896-21.279
		c-1.007-6.798-1.258-15.109-3.526-15.109c-3.021,0-3.399,9.821-3.524,11.836c-0.379,4.154-0.882,6.799-1.386,10.451
		c-1.51,10.072-1.763,12.465-1.763,13.095C225.3009,267.0245,226.4339,267.0245,233.1089,267.0245 M211.0739,285.0305
		c0.63-0.379,0.63,0.881,1.637,0.881c0.503,0,1.133-0.504,1.133-1.007c0-0.63-0.63-1.134-1.133-1.134
		c-0.63,0-0.883,0.378-1.386,0.127c-0.251-0.127-0.251-0.63-0.251-0.883c0-2.266,1.007-5.035,1.259-7.175
		c0.251-1.889,0.378-3.903,0.628-5.792c0.756-5.919,2.268-12.844,2.268-13.977c0-3.776,1.888-7.302,1.888-11.205
		c0-4.408,1.259-8.184,1.889-12.717c1.007-7.807,2.014-15.236,4.029-23.545c0.504-1.763,1.763-2.645,3.903-2.645
		c2.266,0,5.036,0.882,7.051,0.882c1.89,0,3.023-0.882,4.91-0.882c4.029,0,3.526,4.785,4.155,8.435
		c0.127,0.505,1.007,5.162,1.134,5.792c0.126,0.63,0.252,3.275,0.378,3.905c0.881,5.286,1.763,9.568,2.518,14.353
		c0.503,3.147,0.882,7.555,0.882,8.813c0,2.142,0.88,3.778,1.259,5.667c0.251,1.761,0.377,5.036,0.504,5.666
		c1.636,5.666,1.763,10.702,2.896,15.738c1.257,5.541,2.266,13.096,2.896,16.746c0.251,1.636-1.386,2.896-3.149,2.896
		c-1.386,0-2.896-0.251-6.295-0.251c-2.016,0-2.896-1.259-3.023-2.266c-0.126-1.512-1.51-7.682-1.762-9.318
		c-0.377-2.519-0.377-4.785-3.777-4.785c-1.259,0-2.14,0.377-6.045,0.377c-5.162,0-5.792,0.253-6.419,0.505
		c-6.045,2.391,0,15.864-7.682,15.864c-1.512,0-3.022,0-4.658-0.377c-2.519-0.503-2.519-2.392-2.519-4.785
		C210.1919,288.1775,209.9409,285.6605,211.0739,285.0305"/>
	<path class="st0" d="M257.4843,97.4391c-0.062,0-0.124,0.124-0.124,0.151c0,0.061,0.012,0.1,0.062,0.1c0.1,0,0.113-0.1,0.113-0.2
		C257.5353,97.4511,257.5353,97.4391,257.4843,97.4391 M256.4054,99.4971c0-0.364,0.012-0.664,0.012-1.055
		c0-0.175,0.101-0.339,0.101-0.539c0-0.088-0.075-0.352-0.075-0.477c0-0.564-0.038-1.167-0.038-1.631
		c0-0.251,0.063-0.378,0.063-0.578c0-0.892-0.037-1.204-0.037-1.368c0-0.176,0.037-0.566-0.276-0.566
		c-0.842,0-1.105,0.039-1.105-0.276c0-0.176-0.05-0.352-0.05-0.527c0-0.526,0.212-0.426,1.255-0.426c0.15,0,1.179-0.012,1.355-0.012
		c0.39,0,0.252,0.074,0.615,0.074c0.214,0,0.264-0.05,0.666-0.05c0.226,0,0.288,0.101,0.288,0.552c0,0.64-0.2,0.616-1.305,0.616
		c-0.264,0-0.214,0.679-0.214,1.042c0,0.176,0.013,0.338,0.013,1.807c0,0.252-0.063,0.364-0.063,0.628
		c0,0.164,0.076,0.3,0.088,0.576c0.05,0.992,0.012,2.022,0,3.014c0,0.376-0.1,0.527-0.338,0.527c-0.176,0-0.264,0.025-0.515,0.025
		c-0.289,0-0.377-0.164-0.377-0.401C256.4684,100.3761,256.4054,99.6731,256.4054,99.4971"/>
	<path class="st0" d="M263.0482,100.5131c0.051,0,0.101-0.086,0.101-0.137c0-0.037-0.038-0.037-0.063-0.037
		c-0.075,0-0.1,0.037-0.1,0.088C262.9861,100.4642,263.0111,100.5131,263.0482,100.5131 M264.4422,100.1371
		c0-0.176-0.101-0.288-0.101-0.501c0-1.445-0.012-2.073-0.012-2.373c0-0.301,0.037-1.155-0.113-1.155
		c-0.101,0-0.264,0.327-0.439,1.682c-0.088,0.665-0.314,1.695-0.364,2.008c-0.088,0.578-0.139,0.917-0.365,0.917
		c-0.113,0-0.251,0.076-0.464,0.101c-0.276,0.024-0.528-0.025-0.615-0.528l-0.201-1.192c-0.101-0.553-0.189-1.13-0.339-1.606
		c-0.164-0.515-0.2-1.382-0.352-1.382c-0.162,0-0.162,0.2-0.162,0.264c0,0.351,0,0.991,0.024,1.619c0.038,0.803,0,1.557,0,2.361
		c0,0.263-0.062,0.439-0.288,0.439c-0.126-0.027-0.301,0.025-0.402,0.037c-0.277,0.037-0.415-0.151-0.415-0.476
		c0-0.755-0.036-1.858-0.036-2.901c0-0.413,0.036-0.828,0.036-1.28c0-0.127-0.05-0.803-0.036-0.967c0.036-0.866,0.036-1.731,0-2.561
		c-0.026-0.489,0.238-0.615,0.476-0.615c0.163,0,0.402,0.051,0.628,0.051c0.225,0,0.427-0.037,0.577,0.024
		c0.1,0.039,0.201,0.115,0.276,0.616c0.076,0.415,0.251,1.23,0.415,2.109c0.024,0.149,0.074,0.413,0.112,0.677
		c0.014,0.188,0.138,0.942,0.176,1.167c0.1,0.579,0.076,0.879,0.252,0.879c0.162,0,0.175-0.352,0.188-0.488
		c0-0.052,0.088-0.352,0.088-0.479c0-0.452,0.1-0.74,0.251-1.707c0.075-0.476,0.188-0.915,0.263-1.38
		c0.051-0.302,0.113-0.69,0.139-0.979c0.036-0.427,0.401-0.49,0.815-0.49c0.791,0,1.03-0.013,1.08,0.49c0.05,0.477,0,0.955,0,1.431
		c0,0.652,0.025,1.331-0.013,2.686c-0.012,0.64-0.063,1.28,0,1.922c0.05,0.564,0.013,1.192,0.013,1.895
		c0,0.288-0.126,0.376-0.653,0.376c-0.452,0-0.49-0.151-0.502-0.339C264.3661,100.3761,264.4422,100.2522,264.4422,100.1371"/>
</g>
</svg>
