<?xml version="1.0" encoding="UTF-8"?>
<svg id="Layer_1" data-name="Layer 1" xmlns="http://www.w3.org/2000/svg" viewBox="0 0 175.66 207.77">
  <defs>
    <style>
      .cls-1 {
        fill: #e91a12;
      }

      .cls-2 {
        opacity: .4;
      }

      .cls-2, .cls-3 {
        fill: #fff;
      }
    </style>
  </defs>
  <g>
    <path class="cls-3" d="M120.08,133.15c-.54-.02-1.08-.05-1.63-.07,10.14-4.93,18.94-12.24,25.76-21.48,8.94-12.11,13.67-26.47,13.67-41.54C157.89,31.43,126.46,0,87.83,0S17.77,31.43,17.77,70.06c0,15.06,4.73,29.42,13.67,41.54,6.83,9.24,15.62,16.55,25.76,21.48-22.33.97-27.78,4.03-29.07,5.21,2.51-1.62,17.83-2.96,38.64-3.52-27.25-8.89-46.99-34.53-46.99-64.71C19.78,32.54,50.31,2.02,87.83,2.02s68.05,30.52,68.05,68.04c0,30.18-19.74,55.82-46.99,64.71,21.7.57,37.45,2.01,38.9,3.72,0,0-.03-.04-.08-.12-1.07-1.08-6-4.16-27.62-5.23Z"/>
    <path class="cls-1" d="M87.83,13.45c-31.22,0-56.61,25.4-56.61,56.61s25.4,56.61,56.61,56.61,56.61-25.4,56.61-56.61S119.05,13.45,87.83,13.45Z"/>
    <path class="cls-2" d="M87.83,20.87c29.97,0,54.57,23.41,56.49,52.9.08-1.23.12-2.46.12-3.71,0-31.22-25.4-56.61-56.61-56.61s-56.61,25.4-56.61,56.61c0,1.25.04,2.48.12,3.71,1.92-29.49,26.52-52.9,56.49-52.9Z"/>
    <path d="M108.88,134.77c27.25-8.89,46.99-34.53,46.99-64.71,0-37.52-30.52-68.04-68.05-68.04S19.78,32.54,19.78,70.06c0,30.18,19.74,55.82,46.99,64.71-22.79.6-39.03,2.16-39.03,3.98,0,2.35,26.9,4.25,60.08,4.25s60.08-1.9,60.08-4.25c0-1.82-16.23-3.38-39.03-3.98ZM31.22,70.06c0-31.22,25.4-56.61,56.61-56.61s56.61,25.4,56.61,56.61-25.4,56.61-56.61,56.61-56.61-25.4-56.61-56.61Z"/>
    <path d="M132.83,78.26v-25.17H42.46v25.29c0,10.69,8.66,19.35,19.35,19.35h10.1c6.31,0,12.19-3.14,15.77-8.15,3.58,5.01,9.46,8.15,15.77,8.15h10.1c5.46,0,10.4-2.28,13.92-5.93,3.49-3.62,5.35-8.51,5.35-13.54Z"/>
    <path class="cls-3" d="M103.46,85.62c-2.99,0-5.67-1.84-6.75-4.62l-1.45-3.74c-1.25-3.24-4.37-5.48-7.84-5.36-3.22.11-6.03,2.09-7.21,5.12l-1.54,3.98c-1.08,2.79-3.76,4.62-6.75,4.62h-10.1c-4,0-7.24-3.24-7.24-7.24v-13.18h66.23v13.18c0,4-3.24,7.24-7.24,7.24h-10.1Z"/>
  </g>
  <g>
    <path d="M7.61,175.39H0v32.38h7.66c3.83,0,6.93-3.1,6.93-6.93v-3.62c0-1.72-.66-3.35-1.76-4.6-.35-.39-.73-.74-1.16-1.05.43-.31.82-.66,1.16-1.05,1.11-1.25,1.76-2.88,1.76-4.6v-3.62c0-1.96-.82-3.73-2.12-4.99-1.3-1.25-3.05-1.92-4.85-1.92ZM10.25,185.91c0,1.06-.67,2.03-1.66,2.42l-.23.09h0c-1.25.5-2.14,1.72-2.14,3.15s.85,2.6,2.06,3.12c0,0,0,0,0,0l.06.02.23.09c.99.38,1.66,1.36,1.66,2.42v3.62c0,1.43-1.16,2.59-2.59,2.59h-3.32v-23.73h3.32c1.43,0,2.59,1.16,2.59,2.59v3.62Z"/>
    <path d="M53.36,175.39h-3.57l-6.71,32.31h4.43l.92-4.45h6.27l.92,4.45h4.43l-6.71-32.31ZM51.23,189.77c.08-.37.61-.37.68,0l1.96,9.48h-4.61l1.96-9.48Z"/>
    <path d="M88.82,175.39l-3.57,14.1c-.09.35-.59.35-.68,0l-3.57-14.1h-4.6l6.24,23.53v8.78h4.52v-8.78l6.24-23.53h-4.6Z"/>
    <path class="cls-1" d="M162.62,193.1c.39.07.77.05,1.12-.05.14-.04.27-.09.39-.16.02,0,.04-.02.05-.03,0,0,0,0,0,0,.11-.07.21-.14.31-.22.09-.08.18-.17.26-.27.12-.14.21-.3.3-.47.03-.06.06-.11.09-.17.08-.18.16-.36.24-.54.09-.2.18-.4.26-.6,0-.01,0-.02.01-.03.03-.08.07-.15.1-.23.02-.06.05-.11.07-.17.01-.03.03-.06.04-.1.07-.16.15-.31.23-.46.04-.07.08-.13.12-.2,0,0,.01-.02.02-.03,0,0,0,0,0,0,.14-.22.29-.42.46-.61.11-.13.24-.25.37-.37.48-.42,1.01-.64,1.6-.64.2,0,.4.03.61.08.04,0,.08.02.13.03h0s0,0,0,0c-.02.01-.05.03-.07.04-.17.1-.34.18-.5.28-.15.09-.27.2-.37.32-.13.15-.23.31-.3.49-.04.11-.07.23-.09.36-.07.39-.05.77.05,1.12.04.14.09.27.16.39,0,.02.02.04.03.05,0,0,0,0,0,0,.07.11.14.21.22.31.08.09.17.18.27.26.14.12.3.21.47.3.06.03.11.06.17.09.09.04.19.09.28.13.29.13.59.27.89.4.05.02.1.05.16.07.35.16.7.32,1.03.51,0,0,0,0,0,0,.02.02.05.03.07.05.19.12.37.26.54.41.13.11.25.24.37.37l-3.83-18.44h-3.57l-3.6,17.33c.14.12.3.23.48.29.11.04.23.07.36.09Z"/>
    <rect x="17.39" y="175.39" width="4.34" height="32.31"/>
    <path class="cls-1" d="M152.89,201.62c0,.96-.78,1.75-1.75,1.75h-3.96v4.34h3.96c3.36,0,6.09-2.73,6.09-6.09v-26.23h-4.34v26.23Z"/>
    <path class="cls-1" d="M167.22,192.54c-.79,0-1.43.64-1.43,1.43h0c0,.79.64,1.43,1.43,1.43s1.43-.64,1.43-1.43h0c0-.79-.64-1.43-1.43-1.43Z"/>
    <rect class="cls-1" x="121.68" y="175.39" width="4.34" height="32.31"/>
    <path class="cls-1" d="M117.82,175.39h-4.34v17.93c0,.39-.55.49-.68.11l-6.28-18.05h-4.69v32.31h4.34v-17.57c0-.39.55-.49.68-.12l6.33,17.69h4.66v-.03s-.01-32.28-.01-32.28Z"/>
    <path class="cls-1" d="M173.24,196.05c-.08-.15-.16-.3-.25-.45-.09-.15-.2-.27-.32-.37-.15-.13-.31-.23-.49-.3-.11-.04-.23-.07-.36-.09-.38-.06-.75-.05-1.09.05-.15.04-.29.1-.43.17-.02,0-.04.02-.05.03,0,0,0,0,0,0-.11.07-.21.14-.31.22-.09.08-.18.17-.26.27-.12.14-.21.3-.3.47-.03.06-.06.11-.09.17-.07.14-.13.29-.19.43-.11.24-.22.48-.32.73,0,.02-.01.03-.02.05-.19.39-.36.8-.58,1.17-.01.02-.02.03-.03.05-.12.19-.25.36-.4.53-.11.13-.24.25-.37.37-.46.41-.98.63-1.55.64h0s-.28,0-.28,0c-.12-.01-.24-.03-.36-.06-.04,0-.08-.02-.13-.03h0s.05-.03.07-.04c.17-.1.34-.18.5-.28.15-.09.27-.2.37-.32.13-.15.23-.31.3-.49.04-.11.07-.23.09-.36.06-.38.05-.75-.05-1.09-.04-.15-.1-.29-.17-.43,0-.02-.02-.04-.03-.05,0,0,0,0,0,0-.07-.11-.14-.21-.22-.31-.04-.05-.09-.1-.14-.14-.05-.05-.09-.09-.14-.13-.14-.12-.3-.21-.47-.3-.06-.03-.11-.06-.17-.09-.18-.08-.36-.16-.54-.24-.2-.09-.4-.18-.6-.26-.01,0-.02,0-.03-.01-.08-.03-.15-.07-.23-.1-.06-.02-.11-.05-.17-.07-.03-.01-.06-.03-.1-.04-.16-.07-.31-.15-.47-.23-.07-.04-.13-.08-.2-.12,0,0-.02,0-.03-.02,0,0,0,0,0,0-.22-.14-.42-.29-.61-.46-.13-.11-.25-.24-.37-.37-.05-.05-.09-.1-.13-.16l-2.86,13.75h4.43l.92-4.45h6.27l.92,4.45h4.43l-2.42-11.66Z"/>
    <path class="cls-1" d="M145.5,175.39h-4.34v17.93c0,.39-.55.49-.68.11l-6.28-18.04h-4.69v32.31h4.34v-17.57c0-.39.55-.49.68-.12l6.33,17.69h4.66v-.03s-.01-32.28-.01-32.28Z"/>
    <path d="M41.39,175.39h-4.34v17.93c0,.39-.55.49-.68.11l-6.28-18.04h-4.69v32.31h4.34v-17.57c0-.39.55-.49.68-.12l6.33,17.69h4.66v-.03s-.01-32.28-.01-32.28Z"/>
    <path d="M76.16,196.5s0-.04,0-.05c-.22-1.97-1.29-3.75-2.88-4.89,1.79-1.28,2.92-3.39,2.92-5.65v-3.62c0-1.96-.82-3.73-2.12-4.99-1.3-1.25-3.05-1.92-4.85-1.92h-7.78v32.37h4.34v-28.06h3.48c1.43,0,2.59,1.16,2.59,2.59v3.62c0,.08,0,.17-.01.25,0,.08-.02.16-.04.25-.02.08-.04.16-.06.24-.02.08-.05.16-.08.23-.03.08-.07.15-.1.22-.04.07-.08.14-.12.21s-.09.14-.14.2-.1.13-.16.19c-.06.06-.12.12-.18.17-.06.05-.13.11-.19.15-.07.05-.14.09-.21.13-.07.04-.15.08-.22.11-.1.05-.21.09-.31.13-.07.03-.1.04-.21.09-.07.03-.15.07-.22.11-.07.04-.14.08-.21.13-.07.04-.13.09-.2.14-.06.05-.13.1-.19.15-.06.05-.12.11-.18.17-.06.06-.11.12-.16.18-.05.06-.1.12-.15.19-.05.07-.09.13-.14.2-.04.07-.08.14-.12.21-.04.07-.07.15-.11.22-.03.07-.06.15-.09.23-.03.08-.05.16-.08.24-.02.08-.04.16-.06.24-.02.08-.03.17-.04.25-.01.08-.02.17-.02.26,0,.06,0,.11,0,.17,0,.08,0,.15,0,.23,0,.07.01.15.02.22,0,.07.02.15.04.22.01.07.03.14.05.21.02.07.04.14.06.21.02.07.05.14.08.2.03.07.06.13.09.2.03.06.06.13.1.19.04.06.07.12.11.18.04.06.08.12.12.17.04.06.09.11.13.17.05.05.09.11.14.16.05.05.1.1.15.15.05.05.11.09.16.14.05.04.11.09.17.13.06.04.12.08.18.12.06.04.12.07.18.11.06.03.13.07.19.09.08.04.17.07.25.1.09.03.18.07.26.11.07.03.13.07.2.1.06.04.13.08.19.12.06.04.12.09.18.13.06.05.11.1.16.15.05.05.1.1.15.16.05.05.09.11.14.17.04.06.08.12.12.18.04.06.07.13.11.19.03.07.06.13.09.2.03.07.05.14.07.21.02.07.04.14.06.21.02.07.03.14.04.22,0,.02,0,.05,0,.07,0,.09.01.19.01.28v8.84c0,.54.06,1.08.16,1.6h4.56c-.25-.49-.38-1.03-.38-1.6,0,0-.01-9.35-.04-9.58Z"/>
  </g>
</svg>