<svg width="174" height="36" viewBox="0 0 174 36" fill="none" xmlns="http://www.w3.org/2000/svg"><g clip-path="url(#clip0_294_98)" fill="#fff"><path d="M63.712 6.404v7.336h-.058l-4.603-6.856c-.204-.315-.531-.48-.997-.48h-.423c-3.066 0-4.603 3.42-4.603 10.255 0 6.834 1.559 10.162 4.661 10.162h.335c.467 0 .802-.137.998-.416l4.632-7.035h.058v7.48c-1.98.358-4.129.537-6.445.537-3.51 0-6.132-.946-7.873-2.847-1.733-1.9-2.6-4.525-2.6-7.881s.896-5.974 2.695-7.917c1.791-1.936 4.348-2.905 7.662-2.905 2.257 0 4.45.187 6.569.567M77.484 17.283l-3.874 9.244c-.787 1.85-1.653 3.5-2.607 4.948-.627.954-1.26 1.635-1.894 2.044-.634.409-1.406.61-2.316.61-.48 0-.961-.101-1.42-.302l1.121-5.213h.059l3 2.918c.16.158.284.237.364.237.139 0 .292-.122.452-.359.4-.559.787-1.24 1.15-2.058l.183-.473-5.63-14.07a13.21 13.21 0 00-.452-.983l-.815-1.427v-.057h7.844v.057l-1.21 1.642c-.145.201-.16.43-.058.689l3.06 8.347 2.454-5.873c.102-.258.153-.445.167-.552.007-.108-.044-.294-.167-.552l-1.85-3.7v-.058h5.178v.057l-1.966 3.342a9.156 9.156 0 00-.758 1.549"/><path d="M85.992 5.357v10.018c1.012-2.187 2.585-3.277 4.719-3.277 1.733 0 3.117.681 4.144 2.044 1.027 1.362 1.544 3.177 1.544 5.443 0 2.266-.626 4.152-1.879 5.586-1.253 1.442-2.884 2.159-4.901 2.159-1.676 0-2.928-.538-3.751-1.606l-4.785 1.606h-.059V8.312c0-.316-.087-.567-.269-.746l-1.457-1.37v-.057l6.694-.775v-.007zm2.272 9.122c-.889 0-1.646.43-2.272 1.284v9.63c.444.438 1.026.66 1.755.66 2.28 0 3.423-2.108 3.423-6.318 0-3.5-.969-5.249-2.906-5.249M112.087 19.047h-9.082v.057c0 1.83.4 3.199 1.209 4.102.808.904 1.85 1.356 3.117 1.356 2.141 0 3.678-.918 4.603-2.747h.058c-.765 3.679-3.001 5.515-6.693 5.515-2.076 0-3.838-.638-5.266-1.908-1.434-1.269-2.148-3.14-2.148-5.6 0-2.604.713-4.54 2.148-5.816 1.435-1.27 3.249-1.908 5.448-1.908.852 0 1.646.108 2.389.33.75.215 1.449.56 2.105 1.011.655.459 1.172 1.104 1.558 1.95.386.847.576 1.844.576 2.998 0 .201-.008.416-.03.653m-6.656-6.383c-.787 0-1.384.452-1.785 1.356-.4.903-.619 2.402-.633 4.489h4.45c.022-.258.029-.56.029-.896 0-1.85-.175-3.134-.532-3.859-.357-.724-.859-1.09-1.529-1.09zM125.8 13.08l-1.667 4.683h-.059l-2.389-2.804c-.182-.222-.364-.272-.546-.15-.386.28-.815.853-1.303 1.728v8.046c0 .302.153.545.451.746l2.964 1.7v.057h-10.138v-.057l1.486-1.37c.182-.158.27-.394.27-.717V14.629c0-.3-.088-.544-.27-.745l-1.486-1.492v-.057h6.723v3.815c.284-1.176.757-2.144 1.42-2.905.67-.767 1.493-1.147 2.483-1.147.867 0 1.552.33 2.061.982zM140.119 19.047h-9.082v.057c0 1.83.401 3.199 1.209 4.102.808.904 1.85 1.356 3.117 1.356 2.141 0 3.678-.918 4.603-2.747h.058c-.764 3.679-3 5.515-6.693 5.515-2.076 0-3.838-.638-5.266-1.908-1.434-1.269-2.148-3.14-2.148-5.6 0-2.604.714-4.54 2.148-5.816 1.435-1.27 3.249-1.908 5.448-1.908.852 0 1.646.108 2.389.33.75.215 1.449.56 2.105 1.011.655.459 1.172 1.104 1.558 1.95.386.847.576 1.844.576 2.998 0 .201-.007.416-.029.653m-6.657-6.383c-.787 0-1.384.452-1.784 1.356-.401.903-.619 2.402-.634 4.489h4.45c.022-.258.029-.56.029-.896 0-1.85-.175-3.134-.532-3.859-.356-.724-.859-1.09-1.529-1.09zM147.599 5.357v19.585c0 .301.102.538.306.717l1.486 1.37v.057h-8.478v-.057l1.486-1.37c.182-.18.269-.416.269-.717V8.312c0-.316-.087-.567-.269-.746l-1.486-1.37v-.057l6.693-.775-.007-.007zM156.622 5.357v19.585c0 .301.102.538.306.717l1.486 1.37v.057h-8.477v-.057l1.485-1.37c.182-.18.27-.416.27-.717V8.312c0-.316-.088-.567-.27-.746l-1.485-1.37v-.057l6.693-.775-.008-.007zM172.485 18.122c0 .122 0 .323-.014.61-.008.286-.015.444-.015.459l-.182 4.23c-.058 1.155.211 1.729.816 1.729.386 0 .663-.18.845-.538h.058c0 .394-.08.753-.24 1.076-.547 1.09-1.537 1.642-2.965 1.642-.91 0-1.675-.251-2.301-.76-.626-.51-.961-1.22-.998-2.13-.306.875-.823 1.577-1.558 2.101-.736.53-1.588.789-2.557.789-1.172 0-2.148-.373-2.935-1.119-.786-.746-1.18-1.771-1.18-3.083 0-1.392.51-2.489 1.53-3.292 1.019-.803 2.206-1.205 3.554-1.205 1.347 0 2.44.273 3.212.803l.058-3.191v-.15c0-2.288-.736-3.428-2.214-3.428-.306 0-.488.021-.561.057-.073.036-.153.136-.255.294l-2.454 4.475h-.058l-1.909-4.26c2.142-.753 4.181-1.133 6.118-1.133 2.141 0 3.7.459 4.69 1.37 1.013.932 1.515 2.481 1.515 4.647m-6.052 1.427c-.765 0-1.369.287-1.799.868-.437.573-.648 1.312-.648 2.201 0 .796.168 1.42.503 1.865.335.444.764.674 1.289.674.684 0 1.26-.352 1.726-1.047v-.029l.058-4.353a3.498 3.498 0 00-1.122-.18M42.606 30.02l-.044-.044c-.335-.373-1.937-2.388-2.127-2.66-.56-.84-1.02-1.7-1.369-2.553-.568-1.377-.903-2.926-1.034-4.734-.051-.702-.08-1.405-.11-2.108-.05-1.233-.101-2.517-.269-3.786A29.197 29.197 0 0036.19 8.06c-.56-1.577-1.442-3.528-3.248-4.596-.896-.531-1.952-.739-3.088-.646-1.122-1.405-3.19-2.832-6.955-2.832C16.678 0 10.939 4.647 8.943 11.302c-.604 2.015-.706 3.901-.757 5.73H3.343c-.627 0-1.136.502-1.136 1.119 0 .616.51 1.118 1.136 1.118H8.12c.605.029 1.093.517 1.093 1.119s-.51 1.119-1.136 1.119h-1.8c-.626 0-1.135.502-1.135 1.118 0 .617.51 1.12 1.136 1.12H7.88c.626 0 1.136.501 1.136 1.118 0 .617-.51 1.119-1.136 1.119H3.896c-.626 0-1.136.502-1.136 1.118 0 .617.51 1.12 1.136 1.12H6.54c.626 0 1.136.501 1.136 1.118 0 .616-.51 1.118-1.136 1.118H3.576c-.102 0-.19-.028-.284-.057-.168.38-.11.84.182 1.17.393.444 4.166 4.216 18.295 4.445-12.12-5.608-10.815-21.062-10.8-21.22.028-.315.196-.61.45-.796.255-.186.598-.258.904-.193 6.329 1.283 9.686-3.027 9.825-3.213.21-.28.553-.452.91-.452s.7.165.91.452c.139.18 3.482 4.49 9.825 3.205.306-.064.641.008.903.194.263.187.43.48.452.796.014.158 1.318 15.612-10.8 21.22 14.063-.23 18.57-4.066 18.57-5.178 0-.3-.123-.588-.341-.803"/><path d="M20.51 29.015c.21.287.553.452.91.452h3.306a1.121 1.121 0 001.085-1.441l-1.136-3.636a2.943 2.943 0 001.406-2.503c0-1.635-1.355-2.969-3.015-2.969-1.661 0-3.008 1.327-3.008 2.969 0 1.054.56 1.972 1.405 2.503l-1.129 3.636c-.109.337-.043.71.175.99zM4.13 22.618c0-.616-.51-1.118-1.137-1.118H1.136C.51 21.5 0 22.002 0 22.618c0 .617.51 1.12 1.136 1.12h1.857c.627 0 1.137-.503 1.137-1.12z"/></g><defs><clipPath id="clip0_294_98"><path fill="#fff" d="M0 0h174v36H0z"/></clipPath></defs></svg>